<svg width="503" height="558" viewBox="0 0 503 558" fill="none" xmlns="http://www.w3.org/2000/svg">
<path d="M208.083 378.118C223.321 378.118 235.674 365.765 235.674 350.527C235.674 335.289 223.321 322.936 208.083 322.936C192.845 322.936 180.492 335.289 180.492 350.527C180.492 365.765 192.845 378.118 208.083 378.118Z" fill="#EBEBEB" stroke="black" stroke-width="4.99699" stroke-miterlimit="1.5" stroke-linecap="round" stroke-linejoin="round"/>
<path d="M296.202 378.118C311.44 378.118 323.793 365.765 323.793 350.527C323.793 335.288 311.44 322.935 296.202 322.935C280.963 322.935 268.61 335.288 268.61 350.527C268.61 365.765 280.963 378.118 296.202 378.118Z" fill="#EBEBEB" stroke="black" stroke-width="4.99699" stroke-miterlimit="1.5" stroke-linecap="round" stroke-linejoin="round"/>
<path d="M384.44 378.118C399.679 378.118 412.032 365.765 412.032 350.527C412.032 335.288 399.679 322.935 384.44 322.935C369.202 322.935 356.849 335.288 356.849 350.527C356.849 365.765 369.202 378.118 384.44 378.118Z" fill="#EBEBEB" stroke="black" stroke-width="4.99699" stroke-miterlimit="1.5" stroke-linecap="round" stroke-linejoin="round"/>
<path d="M472.884 378.118C488.122 378.118 500.475 365.765 500.475 350.527C500.475 335.288 488.122 322.935 472.884 322.935C457.645 322.935 445.292 335.288 445.292 350.527C445.292 365.765 457.645 378.118 472.884 378.118Z" fill="#EBEBEB" stroke="black" stroke-width="4.99699" stroke-miterlimit="1.5" stroke-linecap="round" stroke-linejoin="round"/>
<path d="M208.083 466.507C223.321 466.507 235.674 454.154 235.674 438.915C235.674 423.677 223.321 411.324 208.083 411.324C192.845 411.324 180.492 423.677 180.492 438.915C180.492 454.154 192.845 466.507 208.083 466.507Z" fill="#EBEBEB" stroke="black" stroke-width="4.99699" stroke-miterlimit="1.5" stroke-linecap="round" stroke-linejoin="round"/>
<path d="M296.202 466.507C311.44 466.507 323.793 454.154 323.793 438.915C323.793 423.677 311.44 411.324 296.202 411.324C280.963 411.324 268.61 423.677 268.61 438.915C268.61 454.154 280.963 466.507 296.202 466.507Z" fill="#EBEBEB" stroke="black" stroke-width="4.99699" stroke-miterlimit="1.5" stroke-linecap="round" stroke-linejoin="round"/>
<path d="M384.44 466.507C399.679 466.507 412.032 454.154 412.032 438.915C412.032 423.677 399.679 411.324 384.44 411.324C369.202 411.324 356.849 423.677 356.849 438.915C356.849 454.154 369.202 466.507 384.44 466.507Z" fill="#EBEBEB" stroke="black" stroke-width="4.99699" stroke-miterlimit="1.5" stroke-linecap="round" stroke-linejoin="round"/>
<path d="M472.884 466.507C488.122 466.507 500.475 454.154 500.475 438.915C500.475 423.677 488.122 411.324 472.884 411.324C457.645 411.324 445.292 423.677 445.292 438.915C445.292 454.154 457.645 466.507 472.884 466.507Z" fill="#EBEBEB" stroke="black" stroke-width="4.99699" stroke-miterlimit="1.5" stroke-linecap="round" stroke-linejoin="round"/>
<path d="M208.083 554.949C223.321 554.949 235.674 542.596 235.674 527.358C235.674 512.119 223.321 499.766 208.083 499.766C192.845 499.766 180.492 512.119 180.492 527.358C180.492 542.596 192.845 554.949 208.083 554.949Z" fill="#EBEBEB" stroke="black" stroke-width="4.99699" stroke-miterlimit="1.5" stroke-linecap="round" stroke-linejoin="round"/>
<path d="M296.202 554.949C311.44 554.949 323.793 542.596 323.793 527.358C323.793 512.119 311.44 499.766 296.202 499.766C280.963 499.766 268.61 512.119 268.61 527.358C268.61 542.596 280.963 554.949 296.202 554.949Z" fill="#EBEBEB" stroke="black" stroke-width="4.99699" stroke-miterlimit="1.5" stroke-linecap="round" stroke-linejoin="round"/>
<path d="M384.44 554.949C399.678 554.949 412.032 542.596 412.032 527.358C412.032 512.119 399.678 499.766 384.44 499.766C369.202 499.766 356.849 512.119 356.849 527.358C356.849 542.596 369.202 554.949 384.44 554.949Z" fill="#EBEBEB" stroke="black" stroke-width="4.99699" stroke-miterlimit="1.5" stroke-linecap="round" stroke-linejoin="round"/>
<path d="M472.883 554.949C488.122 554.949 500.475 542.596 500.475 527.358C500.475 512.119 488.122 499.766 472.883 499.766C457.645 499.766 445.292 512.119 445.292 527.358C445.292 542.596 457.645 554.949 472.883 554.949Z" fill="#EBEBEB" stroke="black" stroke-width="4.99699" stroke-miterlimit="1.5" stroke-linecap="round" stroke-linejoin="round"/>
<path fill-rule="evenodd" clip-rule="evenodd" d="M180.492 281.94V275.451H183.825V281.94H180.492ZM190.491 281.94V275.451H197.158V281.94H190.491ZM203.824 281.94V275.451H210.49V281.94H203.824ZM217.157 281.94V275.451H223.823V281.94H217.157ZM230.489 281.94V275.451H237.156V281.94H230.489ZM243.822 281.94V275.451H250.488V281.94H243.822ZM257.154 281.94V275.451H263.821V281.94H257.154ZM270.487 281.94V275.451H277.153V281.94H270.487ZM283.82 281.94V275.451H290.486V281.94H283.82ZM297.152 281.94V275.451H303.818V281.94H297.152ZM310.485 281.94V275.451H317.151V281.94H310.485ZM323.818 281.94V275.451H330.484V281.94H323.818ZM337.15 281.94V275.451H343.816V281.94H337.15ZM350.482 281.94V275.451H357.149V281.94H350.482ZM363.816 281.94V275.451H370.482V281.94H363.816ZM377.148 281.94V275.451H383.814V281.94H377.148ZM390.48 281.94V275.451H397.147V281.94H390.48ZM403.814 281.94V275.451H410.48V281.94H403.814ZM417.146 281.94V275.451H423.812V281.94H417.146ZM430.478 281.94V275.451H437.144V281.94H430.478ZM443.811 281.94V275.451H450.478V281.94H443.811ZM457.144 281.94V275.451H463.81V281.94H457.144ZM470.476 281.94V275.451H477.142V281.94H470.476ZM483.809 281.94V275.451H490.475V281.94H483.809ZM497.141 281.94V275.451H500.474V281.94H497.141Z" fill="black"/>
<path d="M208.083 57.6811C223.321 57.6811 235.674 45.328 235.674 30.0898C235.674 14.8516 223.321 2.49854 208.083 2.49854C192.845 2.49854 180.492 14.8516 180.492 30.0898C180.492 45.328 192.845 57.6811 208.083 57.6811Z" fill="#EBEBEB" stroke="black" stroke-width="4.99699" stroke-miterlimit="1.5" stroke-linecap="round" stroke-linejoin="round"/>
<path d="M296.202 57.6811C311.44 57.6811 323.793 45.3281 323.793 30.0899C323.793 14.8516 311.44 2.4986 296.202 2.4986C280.963 2.4986 268.61 14.8516 268.61 30.0899C268.61 45.3281 280.963 57.6811 296.202 57.6811Z" fill="#EBEBEB" stroke="black" stroke-width="4.99699" stroke-miterlimit="1.5" stroke-linecap="round" stroke-linejoin="round"/>
<path d="M384.44 57.6811C399.679 57.6811 412.032 45.3281 412.032 30.0899C412.032 14.8516 399.679 2.4986 384.44 2.4986C369.202 2.4986 356.849 14.8516 356.849 30.0899C356.849 45.3281 369.202 57.6811 384.44 57.6811Z" fill="#EBEBEB" stroke="black" stroke-width="4.99699" stroke-miterlimit="1.5" stroke-linecap="round" stroke-linejoin="round"/>
<path d="M472.884 57.6811C488.122 57.6811 500.475 45.3281 500.475 30.0899C500.475 14.8516 488.122 2.4986 472.884 2.4986C457.645 2.4986 445.292 14.8516 445.292 30.0899C445.292 45.3281 457.645 57.6811 472.884 57.6811Z" fill="#EBEBEB" stroke="black" stroke-width="4.99699" stroke-miterlimit="1.5" stroke-linecap="round" stroke-linejoin="round"/>
<path d="M208.083 146.07C223.321 146.07 235.674 133.717 235.674 118.479C235.674 103.24 223.321 90.8873 208.083 90.8873C192.845 90.8873 180.492 103.24 180.492 118.479C180.492 133.717 192.845 146.07 208.083 146.07Z" fill="#EBEBEB" stroke="black" stroke-width="4.99699" stroke-miterlimit="1.5" stroke-linecap="round" stroke-linejoin="round"/>
<path d="M296.202 146.07C311.44 146.07 323.793 133.717 323.793 118.479C323.793 103.24 311.44 90.8873 296.202 90.8873C280.963 90.8873 268.61 103.24 268.61 118.479C268.61 133.717 280.963 146.07 296.202 146.07Z" fill="#EBEBEB" stroke="black" stroke-width="4.99699" stroke-miterlimit="1.5" stroke-linecap="round" stroke-linejoin="round"/>
<path d="M384.44 146.07C399.679 146.07 412.032 133.717 412.032 118.479C412.032 103.24 399.679 90.8873 384.44 90.8873C369.202 90.8873 356.849 103.24 356.849 118.479C356.849 133.717 369.202 146.07 384.44 146.07Z" fill="#EBEBEB" stroke="black" stroke-width="4.99699" stroke-miterlimit="1.5" stroke-linecap="round" stroke-linejoin="round"/>
<path d="M472.884 146.07C488.122 146.07 500.475 133.717 500.475 118.479C500.475 103.24 488.122 90.8873 472.884 90.8873C457.645 90.8873 445.292 103.24 445.292 118.479C445.292 133.717 457.645 146.07 472.884 146.07Z" fill="#EBEBEB" stroke="black" stroke-width="4.99699" stroke-miterlimit="1.5" stroke-linecap="round" stroke-linejoin="round"/>
<path d="M208.083 234.512C223.321 234.512 235.674 222.159 235.674 206.921C235.674 191.683 223.321 179.33 208.083 179.33C192.845 179.33 180.492 191.683 180.492 206.921C180.492 222.159 192.845 234.512 208.083 234.512Z" fill="#EBEBEB" stroke="black" stroke-width="4.99699" stroke-miterlimit="1.5" stroke-linecap="round" stroke-linejoin="round"/>
<path d="M296.202 234.512C311.44 234.512 323.793 222.159 323.793 206.921C323.793 191.683 311.44 179.33 296.202 179.33C280.963 179.33 268.61 191.683 268.61 206.921C268.61 222.159 280.963 234.512 296.202 234.512Z" fill="#EBEBEB" stroke="black" stroke-width="4.99699" stroke-miterlimit="1.5" stroke-linecap="round" stroke-linejoin="round"/>
<path d="M384.44 234.512C399.678 234.512 412.032 222.159 412.032 206.921C412.032 191.683 399.678 179.33 384.44 179.33C369.202 179.33 356.849 191.683 356.849 206.921C356.849 222.159 369.202 234.512 384.44 234.512Z" fill="#EBEBEB" stroke="black" stroke-width="4.99699" stroke-miterlimit="1.5" stroke-linecap="round" stroke-linejoin="round"/>
<path d="M472.883 234.512C488.122 234.512 500.475 222.159 500.475 206.921C500.475 191.683 488.122 179.33 472.883 179.33C457.645 179.33 445.292 191.683 445.292 206.921C445.292 222.159 457.645 234.512 472.883 234.512Z" fill="#EBEBEB" stroke="black" stroke-width="4.99699" stroke-miterlimit="1.5" stroke-linecap="round" stroke-linejoin="round"/>
<path fill-rule="evenodd" clip-rule="evenodd" d="M67.656 414.98C87.96 414.98 104.444 431.465 104.444 451.769C104.444 472.073 87.96 488.557 67.656 488.557C47.3519 488.557 30.8677 472.073 30.8677 451.769C30.8677 431.465 47.3519 414.98 67.656 414.98ZM67.656 433.375C77.808 433.375 86.05 441.617 86.05 451.769C86.05 461.921 77.808 470.163 67.656 470.163C57.5039 470.163 49.2618 461.921 49.2618 451.769C49.2618 441.617 57.5039 433.375 67.656 433.375Z" fill="black" stroke="black" stroke-width="1.99927" stroke-miterlimit="2"/>
<path fill-rule="evenodd" clip-rule="evenodd" d="M67.656 67.6552C87.96 67.6552 104.444 84.1394 104.444 104.444C104.444 124.747 87.96 141.232 67.656 141.232C47.3519 141.232 30.8677 124.747 30.8677 104.444C30.8677 84.1394 47.3519 67.6552 67.656 67.6552ZM67.656 86.0494C77.808 86.0494 86.05 94.2914 86.05 104.444C86.05 114.596 77.808 122.838 67.656 122.838C57.5039 122.838 49.2618 114.596 49.2618 104.444C49.2618 94.2914 57.5039 86.0494 67.656 86.0494Z" fill="#2C2C28" stroke="black" stroke-width="1.99927" stroke-miterlimit="2"/>
<path d="M2.44764 388.369V397.092H1.39139V388.369H2.44764ZM5.43432 393.157V397.092H4.42918V390.55H5.40025V391.572H5.48543C5.63875 391.24 5.87158 390.973 6.18392 390.771C6.49625 390.567 6.89944 390.465 7.39349 390.465C7.83644 390.465 8.22401 390.556 8.55622 390.737C8.88843 390.916 9.14681 391.189 9.33137 391.555C9.51593 391.919 9.60821 392.379 9.60821 392.935V397.092H8.60307V393.003C8.60307 392.489 8.46962 392.089 8.20272 391.802C7.93581 391.513 7.56953 391.368 7.10388 391.368C6.78303 391.368 6.49625 391.437 6.24354 391.576C5.99368 391.716 5.79634 391.919 5.65153 392.185C5.50672 392.452 5.43432 392.776 5.43432 393.157ZM13.9152 397.228C13.37 397.228 12.8888 397.09 12.4714 396.815C12.054 396.537 11.7275 396.145 11.4918 395.64C11.2561 395.131 11.1383 394.531 11.1383 393.838C11.1383 393.151 11.2561 392.555 11.4918 392.049C11.7275 391.544 12.0554 391.153 12.4756 390.878C12.8959 390.603 13.3814 390.465 13.9322 390.465C14.3581 390.465 14.6946 390.536 14.9416 390.678C15.1915 390.817 15.3817 390.976 15.5124 391.155C15.6458 391.331 15.7494 391.476 15.8233 391.589H15.9084V388.369H16.9136V397.092H15.9425V396.087H15.8233C15.7494 396.206 15.6444 396.357 15.5081 396.538C15.3718 396.717 15.1773 396.878 14.9246 397.02C14.6719 397.159 14.3354 397.228 13.9152 397.228ZM14.0515 396.325C14.4547 396.325 14.7954 396.22 15.0737 396.01C15.3519 395.797 15.5635 395.503 15.7083 395.128C15.8531 394.751 15.9255 394.315 15.9255 393.821C15.9255 393.333 15.8545 392.905 15.7125 392.539C15.5706 392.17 15.3604 391.883 15.0822 391.679C14.8039 391.471 14.4604 391.368 14.0515 391.368C13.6256 391.368 13.2707 391.477 12.9867 391.696C12.7056 391.911 12.4941 392.205 12.3521 392.577C12.213 392.946 12.1434 393.361 12.1434 393.821C12.1434 394.287 12.2144 394.71 12.3564 395.09C12.5012 395.468 12.7141 395.769 12.9952 395.993C13.2792 396.215 13.6313 396.325 14.0515 396.325ZM18.8941 397.092V390.55H19.8992V397.092H18.8941ZM19.4051 389.46C19.2092 389.46 19.0403 389.393 18.8983 389.259C18.7592 389.126 18.6896 388.966 18.6896 388.778C18.6896 388.591 18.7592 388.43 18.8983 388.297C19.0403 388.163 19.2092 388.097 19.4051 388.097C19.6011 388.097 19.7686 388.163 19.9077 388.297C20.0497 388.43 20.1207 388.591 20.1207 388.778C20.1207 388.966 20.0497 389.126 19.9077 389.259C19.7686 389.393 19.6011 389.46 19.4051 389.46ZM21.7402 397.092V390.55H22.7112V391.538H22.7794C22.8986 391.214 23.1144 390.952 23.4268 390.75C23.7391 390.549 24.0912 390.448 24.483 390.448C24.5568 390.448 24.6491 390.449 24.7599 390.452C24.8706 390.455 24.9544 390.459 25.0111 390.465V391.487C24.9771 391.478 24.899 391.466 24.7769 391.449C24.6576 391.429 24.5313 391.419 24.3978 391.419C24.0798 391.419 23.7959 391.486 23.546 391.619C23.299 391.75 23.1031 391.931 22.9583 392.164C22.8163 392.394 22.7453 392.657 22.7453 392.952V397.092H21.7402ZM28.7464 397.228C28.116 397.228 27.5723 397.089 27.1151 396.811C26.6608 396.53 26.3102 396.138 26.0631 395.635C25.819 395.13 25.6969 394.542 25.6969 393.872C25.6969 393.202 25.819 392.611 26.0631 392.1C26.3102 391.586 26.6537 391.186 27.0938 390.899C27.5368 390.61 28.0535 390.465 28.6441 390.465C28.9849 390.465 29.3213 390.522 29.6535 390.635C29.9857 390.749 30.2881 390.933 30.5607 391.189C30.8333 391.442 31.0505 391.777 31.2124 392.194C31.3742 392.611 31.4551 393.125 31.4551 393.736V394.162H26.4124V393.293H30.4329C30.4329 392.924 30.3591 392.594 30.2115 392.305C30.0667 392.015 29.8594 391.787 29.5897 391.619C29.3227 391.451 29.0076 391.368 28.6441 391.368C28.2438 391.368 27.8974 391.467 27.6049 391.666C27.3153 391.862 27.0924 392.117 26.9362 392.432C26.7801 392.748 26.702 393.086 26.702 393.446V394.025C26.702 394.519 26.7872 394.938 26.9575 395.282C27.1307 395.623 27.3707 395.882 27.6773 396.061C27.984 396.237 28.3403 396.325 28.7464 396.325C29.0104 396.325 29.2489 396.288 29.4619 396.215C29.6777 396.138 29.8637 396.024 30.0198 395.874C30.176 395.72 30.2967 395.53 30.3818 395.303L31.3529 395.576C31.2507 395.905 31.0789 396.195 30.8376 396.445C30.5962 396.692 30.2981 396.885 29.9432 397.024C29.5882 397.16 29.1893 397.228 28.7464 397.228ZM35.6418 397.228C35.0285 397.228 34.5004 397.083 34.0574 396.794C33.6145 396.504 33.2737 396.105 33.0352 395.597C32.7967 395.089 32.6775 394.508 32.6775 393.855C32.6775 393.191 32.7996 392.604 33.0438 392.096C33.2908 391.585 33.6344 391.186 34.0745 390.899C34.5174 390.61 35.0342 390.465 35.6248 390.465C36.0847 390.465 36.4993 390.55 36.8684 390.72C37.2375 390.891 37.5399 391.129 37.7756 391.436C38.0113 391.743 38.1575 392.1 38.2143 392.509H37.2091C37.1325 392.211 36.9621 391.947 36.698 391.717C36.4368 391.484 36.0847 391.368 35.6418 391.368C35.25 391.368 34.9064 391.47 34.6111 391.674C34.3186 391.876 34.0901 392.161 33.9254 392.53C33.7635 392.897 33.6826 393.327 33.6826 393.821C33.6826 394.326 33.7621 394.766 33.9211 395.141C34.083 395.516 34.3101 395.807 34.6026 396.014C34.8979 396.222 35.2443 396.325 35.6418 396.325C35.903 396.325 36.1401 396.28 36.3531 396.189C36.566 396.098 36.7463 395.968 36.894 395.797C37.0416 395.627 37.1467 395.422 37.2091 395.184H38.2143C38.1575 395.57 38.0169 395.918 37.7926 396.227C37.5712 396.534 37.2773 396.778 36.911 396.96C36.5476 397.139 36.1245 397.228 35.6418 397.228ZM42.5287 390.55V391.402H39.1385V390.55H42.5287ZM40.1266 388.983H41.1317V395.218C41.1317 395.502 41.1729 395.715 41.2553 395.857C41.3404 395.996 41.4483 396.09 41.5789 396.138C41.7124 396.183 41.8529 396.206 42.0006 396.206C42.1113 396.206 42.2022 396.2 42.2732 396.189C42.3442 396.175 42.4009 396.163 42.4435 396.155L42.648 397.058C42.5798 397.083 42.4847 397.109 42.3626 397.135C42.2405 397.163 42.0858 397.177 41.8984 397.177C41.6144 397.177 41.3362 397.116 41.0636 396.994C40.7939 396.872 40.5695 396.686 40.3907 396.436C40.2146 396.186 40.1266 395.871 40.1266 395.491V388.983ZM50.4758 391.479H48.8566V397.092H47.8012V391.479H46.6738V390.987L47.8012 390.627V390.256C47.8012 389.704 47.8812 389.256 48.0411 388.912C48.209 388.569 48.4489 388.317 48.7607 388.157C49.0725 387.997 49.4483 387.917 49.8881 387.917C50.1439 387.917 50.3758 387.941 50.5837 387.989C50.7996 388.029 50.9835 388.077 51.1354 388.133L50.8596 388.96C50.7316 388.92 50.5837 388.88 50.4158 388.84C50.2479 388.8 50.076 388.78 49.9001 388.78C49.5483 388.78 49.2844 388.9 49.1085 389.14C48.9406 389.372 48.8566 389.74 48.8566 390.244V390.663H50.4758V391.479ZM52.6946 390.663V397.092H51.6391V390.663H52.6946ZM52.1789 388.253C52.3388 388.253 52.4787 388.309 52.5986 388.421C52.7266 388.525 52.7905 388.692 52.7905 388.924C52.7905 389.148 52.7266 389.316 52.5986 389.428C52.4787 389.54 52.3388 389.596 52.1789 389.596C52.0029 389.596 51.855 389.54 51.7351 389.428C51.6152 389.316 51.5552 389.148 51.5552 388.924C51.5552 388.692 51.6152 388.525 51.7351 388.421C51.855 388.309 52.0029 388.253 52.1789 388.253ZM54.6287 397.092V390.55H55.5998V391.538H55.668C55.7872 391.214 56.003 390.952 56.3153 390.75C56.6277 390.549 56.9798 390.448 57.3716 390.448C57.4454 390.448 57.5377 390.449 57.6484 390.452C57.7592 390.455 57.8429 390.459 57.8997 390.465V391.487C57.8656 391.478 57.7876 391.466 57.6655 391.449C57.5462 391.429 57.4199 391.419 57.2864 391.419C56.9684 391.419 56.6845 391.486 56.4346 391.619C56.1876 391.75 55.9916 391.931 55.8468 392.164C55.7049 392.394 55.6339 392.657 55.6339 392.952V397.092H54.6287ZM61.6349 397.228C61.0046 397.228 60.4608 397.089 60.0037 396.811C59.5494 396.53 59.1987 396.138 58.9517 395.635C58.7075 395.13 58.5854 394.542 58.5854 393.872C58.5854 393.202 58.7075 392.611 58.9517 392.1C59.1987 391.586 59.5423 391.186 59.9824 390.899C60.4253 390.61 60.9421 390.465 61.5327 390.465C61.8734 390.465 62.2099 390.522 62.5421 390.635C62.8743 390.749 63.1767 390.933 63.4493 391.189C63.7219 391.442 63.9391 391.777 64.1009 392.194C64.2628 392.611 64.3437 393.125 64.3437 393.736V394.162H59.3009V393.293H63.3215C63.3215 392.924 63.2477 392.594 63.1 392.305C62.9552 392.015 62.748 391.787 62.4782 391.619C62.2113 391.451 61.8961 391.368 61.5327 391.368C61.1323 391.368 60.7859 391.467 60.4935 391.666C60.2039 391.862 59.981 392.117 59.8248 392.432C59.6686 392.748 59.5906 393.086 59.5906 393.446V394.025C59.5906 394.519 59.6757 394.938 59.8461 395.282C60.0193 395.623 60.2592 395.882 60.5659 396.061C60.8725 396.237 61.2289 396.325 61.6349 396.325C61.899 396.325 62.1375 396.288 62.3504 396.215C62.5662 396.138 62.7522 396.024 62.9084 395.874C63.0645 395.72 63.1852 395.53 63.2704 395.303L64.2415 395.576C64.1393 395.905 63.9675 396.195 63.7261 396.445C63.4848 396.692 63.1866 396.885 62.8317 397.024C62.4768 397.16 62.0779 397.228 61.6349 397.228ZM73.8798 392.015L72.9768 392.271C72.92 392.12 72.8363 391.974 72.7255 391.832C72.6176 391.687 72.47 391.568 72.2826 391.474C72.0952 391.381 71.8553 391.334 71.5628 391.334C71.1625 391.334 70.8288 391.426 70.5619 391.61C70.2979 391.792 70.1658 392.024 70.1658 392.305C70.1658 392.555 70.2567 392.752 70.4384 392.897C70.6201 393.042 70.9041 393.162 71.2902 393.259L72.2613 393.497C72.8462 393.639 73.2821 393.856 73.5688 394.149C73.8556 394.439 73.999 394.812 73.999 395.269C73.999 395.644 73.8911 395.979 73.6753 396.274C73.4624 396.569 73.1642 396.802 72.7809 396.973C72.3976 397.143 71.9518 397.228 71.4436 397.228C70.7763 397.228 70.224 397.083 69.7868 396.794C69.3495 396.504 69.0727 396.081 68.9563 395.525L69.9103 395.286C70.0012 395.638 70.1729 395.902 70.4256 396.078C70.6812 396.254 71.0148 396.342 71.4265 396.342C71.895 396.342 72.267 396.243 72.5424 396.044C72.8207 395.843 72.9598 395.601 72.9598 395.32C72.9598 395.093 72.8803 394.903 72.7213 394.749C72.5623 394.593 72.3181 394.477 71.9887 394.4L70.8984 394.145C70.2993 394.003 69.8592 393.783 69.5781 393.484C69.2998 393.184 69.1607 392.807 69.1607 392.356C69.1607 391.987 69.2643 391.66 69.4716 391.376C69.6817 391.092 69.9671 390.869 70.3277 390.708C70.6911 390.546 71.1028 390.465 71.5628 390.465C72.2102 390.465 72.7184 390.607 73.0876 390.891C73.4595 391.175 73.7236 391.549 73.8798 392.015ZM79.6348 394.417V390.55H80.64V397.092H79.6348V395.985H79.5667C79.4133 396.317 79.1748 396.599 78.8512 396.832C78.5275 397.062 78.1186 397.177 77.6245 397.177C77.2157 397.177 76.8522 397.088 76.5342 396.909C76.2162 396.727 75.9663 396.454 75.7846 396.091C75.6029 395.725 75.512 395.263 75.512 394.707V390.55H76.5172V394.639C76.5172 395.116 76.6506 395.496 76.9175 395.78C77.1873 396.064 77.5308 396.206 77.9482 396.206C78.1981 396.206 78.4522 396.142 78.7106 396.014C78.9718 395.887 79.1905 395.691 79.3665 395.427C79.5454 395.163 79.6348 394.826 79.6348 394.417ZM82.4809 399.545V390.55H83.452V391.589H83.5713C83.6451 391.476 83.7473 391.331 83.8779 391.155C84.0114 390.976 84.2016 390.817 84.4486 390.678C84.6985 390.536 85.0364 390.465 85.4623 390.465C86.0131 390.465 86.4987 390.603 86.9189 390.878C87.3391 391.153 87.6671 391.544 87.9027 392.049C88.1384 392.555 88.2563 393.151 88.2563 393.838C88.2563 394.531 88.1384 395.131 87.9027 395.64C87.6671 396.145 87.3406 396.537 86.9232 396.815C86.5058 397.09 86.0245 397.228 85.4793 397.228C85.0591 397.228 84.7226 397.159 84.4699 397.02C84.2172 396.878 84.0227 396.717 83.8864 396.538C83.7502 396.357 83.6451 396.206 83.5713 396.087H83.4861V399.545H82.4809ZM83.4691 393.821C83.4691 394.315 83.5415 394.751 83.6863 395.128C83.8311 395.503 84.0426 395.797 84.3209 396.01C84.5991 396.22 84.9399 396.325 85.343 396.325C85.7633 396.325 86.1139 396.215 86.395 395.993C86.679 395.769 86.8919 395.468 87.0339 395.09C87.1787 394.71 87.2511 394.287 87.2511 393.821C87.2511 393.361 87.1801 392.946 87.0382 392.577C86.899 392.205 86.6875 391.911 86.4036 391.696C86.1225 391.477 85.769 391.368 85.343 391.368C84.9342 391.368 84.5906 391.471 84.3124 391.679C84.0341 391.883 83.824 392.17 83.682 392.539C83.54 392.905 83.4691 393.333 83.4691 393.821ZM89.7895 399.545V390.55H90.7606V391.589H90.8798C90.9537 391.476 91.0559 391.331 91.1865 391.155C91.3199 390.976 91.5102 390.817 91.7572 390.678C92.0071 390.536 92.345 390.465 92.7709 390.465C93.3217 390.465 93.8072 390.603 94.2275 390.878C94.6477 391.153 94.9757 391.544 95.2113 392.049C95.447 392.555 95.5648 393.151 95.5648 393.838C95.5648 394.531 95.447 395.131 95.2113 395.64C94.9757 396.145 94.6491 396.537 94.2317 396.815C93.8143 397.09 93.3331 397.228 92.7879 397.228C92.3677 397.228 92.0312 397.159 91.7785 397.02C91.5258 396.878 91.3313 396.717 91.195 396.538C91.0587 396.357 90.9537 396.206 90.8798 396.087H90.7947V399.545H89.7895ZM90.7776 393.821C90.7776 394.315 90.85 394.751 90.9948 395.128C91.1396 395.503 91.3512 395.797 91.6294 396.01C91.9077 396.22 92.2484 396.325 92.6516 396.325C93.0718 396.325 93.4225 396.215 93.7036 395.993C93.9875 395.769 94.2005 395.468 94.3425 395.09C94.4873 394.71 94.5597 394.287 94.5597 393.821C94.5597 393.361 94.4887 392.946 94.3467 392.577C94.2076 392.205 93.9961 391.911 93.7121 391.696C93.431 391.477 93.0775 391.368 92.6516 391.368C92.2427 391.368 91.8992 391.471 91.6209 391.679C91.3427 391.883 91.1325 392.17 90.9906 392.539C90.8486 392.905 90.7776 393.333 90.7776 393.821ZM99.7557 397.228C99.1652 397.228 98.647 397.088 98.2012 396.807C97.7582 396.525 97.4118 396.132 97.162 395.627C96.9149 395.121 96.7914 394.531 96.7914 393.855C96.7914 393.174 96.9149 392.579 97.162 392.07C97.4118 391.562 97.7582 391.168 98.2012 390.886C98.647 390.605 99.1652 390.465 99.7557 390.465C100.346 390.465 100.863 390.605 101.306 390.886C101.752 391.168 102.098 391.562 102.345 392.07C102.595 392.579 102.72 393.174 102.72 393.855C102.72 394.531 102.595 395.121 102.345 395.627C102.098 396.132 101.752 396.525 101.306 396.807C100.863 397.088 100.346 397.228 99.7557 397.228ZM99.7557 396.325C100.204 396.325 100.573 396.21 100.863 395.98C101.153 395.75 101.367 395.448 101.506 395.073C101.645 394.698 101.715 394.292 101.715 393.855C101.715 393.418 101.645 393.01 101.506 392.633C101.367 392.255 101.153 391.95 100.863 391.717C100.573 391.484 100.204 391.368 99.7557 391.368C99.3071 391.368 98.938 391.484 98.6484 391.717C98.3588 391.95 98.1444 392.255 98.0053 392.633C97.8661 393.01 97.7966 393.418 97.7966 393.855C97.7966 394.292 97.8661 394.698 98.0053 395.073C98.1444 395.448 98.3588 395.75 98.6484 395.98C98.938 396.21 99.3071 396.325 99.7557 396.325ZM104.254 397.092V390.55H105.225V391.538H105.294C105.413 391.214 105.629 390.952 105.941 390.75C106.253 390.549 106.605 390.448 106.997 390.448C107.071 390.448 107.163 390.449 107.274 390.452C107.385 390.455 107.469 390.459 107.525 390.465V391.487C107.491 391.478 107.413 391.466 107.291 391.449C107.172 391.429 107.046 391.419 106.912 391.419C106.594 391.419 106.31 391.486 106.06 391.619C105.813 391.75 105.617 391.931 105.472 392.164C105.331 392.394 105.26 392.657 105.26 392.952V397.092H104.254ZM111.972 390.55V391.402H108.582V390.55H111.972ZM109.57 388.983H110.575V395.218C110.575 395.502 110.616 395.715 110.698 395.857C110.784 395.996 110.891 396.09 111.022 396.138C111.156 396.183 111.296 396.206 111.444 396.206C111.554 396.206 111.645 396.2 111.716 396.189C111.787 396.175 111.844 396.163 111.887 396.155L112.091 397.058C112.023 397.083 111.928 397.109 111.806 397.135C111.684 397.163 111.529 397.177 111.341 397.177C111.058 397.177 110.779 397.116 110.507 396.994C110.237 396.872 110.013 396.686 109.834 396.436C109.658 396.186 109.57 395.871 109.57 395.491V388.983Z" fill="black"/>
<path d="M2.1125 154.742L2.1125 163.464H1.05625L1.05625 154.742H2.1125ZM5.09918 159.529L5.09918 163.464H4.09403L4.09403 156.922H5.0651V157.944H5.15028C5.30361 157.612 5.53644 157.345 5.84877 157.144C6.1611 156.939 6.5643 156.837 7.05835 156.837C7.50129 156.837 7.88887 156.928 8.22108 157.11C8.55328 157.289 8.81167 157.561 8.99623 157.927C9.18079 158.291 9.27307 158.751 9.27307 159.307V163.464H8.26793V159.375C8.26793 158.862 8.13447 158.461 7.86757 158.174C7.60067 157.885 7.23439 157.74 6.76873 157.74C6.44788 157.74 6.1611 157.81 5.9084 157.949C5.65853 158.088 5.4612 158.291 5.31639 158.558C5.17158 158.825 5.09918 159.148 5.09918 159.529ZM13.5801 163.6C13.0349 163.6 12.5536 163.463 12.1362 163.187C11.7188 162.909 11.3923 162.517 11.1566 162.012C10.921 161.504 10.8031 160.903 10.8031 160.21C10.8031 159.523 10.921 158.927 11.1566 158.421C11.3923 157.916 11.7203 157.526 12.1405 157.25C12.5607 156.975 13.0463 156.837 13.5971 156.837C14.023 156.837 14.3595 156.908 14.6065 157.05C14.8564 157.189 15.0466 157.348 15.1772 157.527C15.3107 157.703 15.4143 157.848 15.4881 157.961H15.5733V154.742H16.5784V163.464H15.6074V162.459H15.4881C15.4143 162.578 15.3092 162.729 15.1729 162.91C15.0367 163.089 14.8422 163.25 14.5895 163.392C14.3368 163.531 14.0003 163.6 13.5801 163.6ZM13.7163 162.698C14.1195 162.698 14.4603 162.592 14.7385 162.382C15.0168 162.169 15.2283 161.876 15.3731 161.501C15.5179 161.123 15.5903 160.687 15.5903 160.193C15.5903 159.705 15.5194 159.278 15.3774 158.911C15.2354 158.542 15.0253 158.255 14.747 158.051C14.4688 157.844 14.1252 157.74 13.7163 157.74C13.2904 157.74 12.9355 157.849 12.6516 158.068C12.3705 158.284 12.1589 158.578 12.017 158.95C11.8778 159.319 11.8083 159.733 11.8083 160.193C11.8083 160.659 11.8793 161.082 12.0212 161.462C12.166 161.84 12.379 162.141 12.6601 162.365C12.944 162.587 13.2961 162.698 13.7163 162.698ZM18.5589 163.464V156.922H19.5641V163.464H18.5589ZM19.07 155.832C18.8741 155.832 18.7051 155.765 18.5632 155.632C18.424 155.498 18.3545 155.338 18.3545 155.15C18.3545 154.963 18.424 154.803 18.5632 154.669C18.7051 154.536 18.8741 154.469 19.07 154.469C19.2659 154.469 19.4334 154.536 19.5726 154.669C19.7145 154.803 19.7855 154.963 19.7855 155.15C19.7855 155.338 19.7145 155.498 19.5726 155.632C19.4334 155.765 19.2659 155.832 19.07 155.832ZM21.405 163.464V156.922H22.3761V157.91H22.4443C22.5635 157.587 22.7793 157.324 23.0916 157.122C23.404 156.921 23.756 156.82 24.1479 156.82C24.2217 156.82 24.314 156.821 24.4247 156.824C24.5355 156.827 24.6192 156.831 24.676 156.837V157.859C24.6419 157.851 24.5638 157.838 24.4418 157.821C24.3225 157.801 24.1961 157.791 24.0627 157.791C23.7447 157.791 23.4607 157.858 23.2109 157.991C22.9639 158.122 22.7679 158.304 22.6231 158.536C22.4812 158.766 22.4102 159.029 22.4102 159.324V163.464H21.405ZM28.4112 163.6C27.7809 163.6 27.2371 163.461 26.78 163.183C26.3257 162.902 25.975 162.51 25.728 162.008C25.4838 161.502 25.3617 160.914 25.3617 160.244C25.3617 159.574 25.4838 158.984 25.728 158.473C25.975 157.959 26.3186 157.558 26.7587 157.271C27.2016 156.982 27.7184 156.837 28.309 156.837C28.6497 156.837 28.9862 156.894 29.3184 157.007C29.6506 157.121 29.953 157.306 30.2256 157.561C30.4982 157.814 30.7154 158.149 30.8772 158.566C31.0391 158.984 31.12 159.498 31.12 160.108V160.534H26.0772V159.665H30.0978C30.0978 159.296 30.024 158.967 29.8763 158.677C29.7315 158.387 29.5242 158.159 29.2545 157.991C28.9876 157.824 28.6724 157.74 28.309 157.74C27.9086 157.74 27.5622 157.839 27.2698 158.038C26.9802 158.234 26.7573 158.49 26.6011 158.805C26.4449 159.12 26.3669 159.458 26.3669 159.818V160.398C26.3669 160.892 26.452 161.311 26.6224 161.654C26.7956 161.995 27.0355 162.255 27.3422 162.433C27.6488 162.61 28.0052 162.698 28.4112 162.698C28.6753 162.698 28.9138 162.661 29.1267 162.587C29.3425 162.51 29.5285 162.397 29.6847 162.246C29.8408 162.093 29.9615 161.903 30.0467 161.675L31.0178 161.948C30.9155 162.277 30.7438 162.567 30.5024 162.817C30.2611 163.064 29.9629 163.257 29.608 163.396C29.2531 163.532 28.8542 163.6 28.4112 163.6ZM35.3067 163.6C34.6933 163.6 34.1652 163.456 33.7223 163.166C33.2793 162.876 32.9386 162.477 32.7001 161.969C32.4616 161.461 32.3423 160.88 32.3423 160.227C32.3423 159.563 32.4644 158.977 32.7086 158.468C32.9556 157.957 33.2992 157.558 33.7393 157.271C34.1823 156.982 34.699 156.837 35.2896 156.837C35.7496 156.837 36.1641 156.922 36.5333 157.093C36.9024 157.263 37.2048 157.501 37.4404 157.808C37.6761 158.115 37.8223 158.473 37.8791 158.881H36.874C36.7973 158.583 36.627 158.319 36.3629 158.089C36.1017 157.856 35.7496 157.74 35.3067 157.74C34.9148 157.74 34.5713 157.842 34.276 158.047C33.9835 158.248 33.7549 158.534 33.5902 158.903C33.4284 159.269 33.3475 159.699 33.3475 160.193C33.3475 160.699 33.427 161.139 33.586 161.514C33.7478 161.888 33.975 162.179 34.2674 162.387C34.5627 162.594 34.9091 162.698 35.3067 162.698C35.5679 162.698 35.805 162.652 36.0179 162.561C36.2309 162.47 36.4112 162.34 36.5588 162.169C36.7065 161.999 36.8115 161.795 36.874 161.556H37.8791C37.8223 161.942 37.6818 162.29 37.4575 162.6C37.236 162.906 36.9421 163.15 36.5759 163.332C36.2124 163.511 35.7893 163.6 35.3067 163.6ZM42.1936 156.922V157.774H38.8033V156.922H42.1936ZM39.7915 155.355H40.7966V161.59C40.7966 161.874 40.8378 162.087 40.9201 162.229C41.0053 162.368 41.1132 162.462 41.2438 162.51C41.3772 162.556 41.5178 162.578 41.6654 162.578C41.7762 162.578 41.867 162.573 41.938 162.561C42.009 162.547 42.0658 162.536 42.1084 162.527L42.3128 163.43C42.2447 163.456 42.1496 163.481 42.0275 163.507C41.9054 163.535 41.7506 163.549 41.5632 163.549C41.2793 163.549 41.001 163.488 40.7285 163.366C40.4587 163.244 40.2344 163.058 40.0555 162.808C39.8795 162.558 39.7915 162.243 39.7915 161.863V155.355ZM50.1406 157.851H48.5215V163.464H47.4661V157.851H46.3387V157.359L47.4661 157V156.628C47.4661 156.076 47.546 155.628 47.7059 155.285C47.8738 154.941 48.1137 154.689 48.4255 154.529C48.7374 154.369 49.1132 154.289 49.5529 154.289C49.8088 154.289 50.0407 154.313 50.2486 154.361C50.4645 154.401 50.6484 154.449 50.8003 154.505L50.5244 155.333C50.3965 155.293 50.2486 155.253 50.0807 155.213C49.9127 155.173 49.7408 155.153 49.5649 155.153C49.2131 155.153 48.9493 155.273 48.7734 155.512C48.6055 155.744 48.5215 156.112 48.5215 156.616V157.036H50.1406V157.851ZM52.3594 157.036V163.464H51.304V157.036H52.3594ZM51.8437 154.625C52.0036 154.625 52.1435 154.681 52.2635 154.793C52.3914 154.897 52.4554 155.065 52.4554 155.297C52.4554 155.52 52.3914 155.688 52.2635 155.8C52.1435 155.912 52.0036 155.968 51.8437 155.968C51.6678 155.968 51.5199 155.912 51.3999 155.8C51.28 155.688 51.22 155.52 51.22 155.297C51.22 155.065 51.28 154.897 51.3999 154.793C51.5199 154.681 51.6678 154.625 51.8437 154.625ZM54.2936 163.464V156.922H55.2647V157.91H55.3328C55.4521 157.587 55.6679 157.324 55.9802 157.122C56.2925 156.921 56.6446 156.82 57.0364 156.82C57.1103 156.82 57.2025 156.821 57.3133 156.824C57.424 156.827 57.5078 156.831 57.5646 156.837V157.859C57.5305 157.851 57.4524 157.838 57.3303 157.821C57.2111 157.801 57.0847 157.791 56.9513 157.791C56.6332 157.791 56.3493 157.858 56.0994 157.991C55.8524 158.122 55.6565 158.304 55.5117 158.536C55.3697 158.766 55.2987 159.029 55.2987 159.324V163.464H54.2936ZM61.2998 163.6C60.6694 163.6 60.1257 163.461 59.6685 163.183C59.2142 162.902 58.8636 162.51 58.6166 162.008C58.3724 161.502 58.2503 160.914 58.2503 160.244C58.2503 159.574 58.3724 158.984 58.6166 158.473C58.8636 157.959 59.2071 157.558 59.6473 157.271C60.0902 156.982 60.607 156.837 61.1976 156.837C61.5383 156.837 61.8747 156.894 62.207 157.007C62.5392 157.121 62.8416 157.306 63.1141 157.561C63.3867 157.814 63.6039 158.149 63.7658 158.566C63.9276 158.984 64.0085 159.498 64.0085 160.108V160.534H58.9658V159.665H62.9864C62.9864 159.296 62.9125 158.967 62.7649 158.677C62.6201 158.387 62.4128 158.159 62.1431 157.991C61.8762 157.824 61.561 157.74 61.1976 157.74C60.7972 157.74 60.4508 157.839 60.1583 158.038C59.8687 158.234 59.6458 158.49 59.4897 158.805C59.3335 159.12 59.2554 159.458 59.2554 159.818V160.398C59.2554 160.892 59.3406 161.311 59.511 161.654C59.6842 161.995 59.9241 162.255 60.2307 162.433C60.5374 162.61 60.8937 162.698 61.2998 162.698C61.5638 162.698 61.8023 162.661 62.0153 162.587C62.2311 162.51 62.4171 162.397 62.5732 162.246C62.7294 162.093 62.8501 161.903 62.9353 161.675L63.9063 161.948C63.8041 162.277 63.6323 162.567 63.391 162.817C63.1496 163.064 62.8515 163.257 62.4966 163.396C62.1417 163.532 61.7427 163.6 61.2998 163.6ZM73.5446 158.387L72.6417 158.643C72.5849 158.492 72.5011 158.346 72.3904 158.204C72.2825 158.059 72.1349 157.94 71.9475 157.846C71.7601 157.753 71.5201 157.706 71.2277 157.706C70.8273 157.706 70.4937 157.798 70.2268 157.983C69.9627 158.164 69.8307 158.396 69.8307 158.677C69.8307 158.927 69.9216 159.124 70.1033 159.269C70.285 159.414 70.5689 159.534 70.9551 159.631L71.9262 159.87C72.5111 160.011 72.9469 160.229 73.2337 160.521C73.5205 160.811 73.6639 161.184 73.6639 161.641C73.6639 162.016 73.556 162.351 73.3402 162.646C73.1272 162.942 72.8291 163.175 72.4458 163.345C72.0624 163.515 71.6167 163.6 71.1084 163.6C70.4412 163.6 69.8889 163.456 69.4516 163.166C69.0144 162.876 68.7375 162.453 68.6211 161.897L69.5752 161.658C69.666 162.01 69.8378 162.274 70.0905 162.451C70.346 162.627 70.6797 162.715 71.0914 162.715C71.5599 162.715 71.9318 162.615 72.2073 162.416C72.4855 162.215 72.6246 161.973 72.6246 161.692C72.6246 161.465 72.5451 161.275 72.3861 161.122C72.2271 160.966 71.9829 160.849 71.6536 160.772L70.5633 160.517C69.9641 160.375 69.524 160.155 69.2429 159.857C68.9647 159.556 68.8256 159.18 68.8256 158.728C68.8256 158.359 68.9292 158.032 69.1365 157.748C69.3466 157.465 69.6319 157.242 69.9925 157.08C70.356 156.918 70.7677 156.837 71.2277 156.837C71.8751 156.837 72.3833 156.979 72.7524 157.263C73.1244 157.547 73.3884 157.922 73.5446 158.387ZM79.2997 160.789V156.922H80.3048V163.464H79.2997V162.357H79.2315C79.0782 162.689 78.8397 162.972 78.516 163.204C78.1923 163.434 77.7834 163.549 77.2894 163.549C76.8805 163.549 76.5171 163.46 76.1991 163.281C75.8811 163.099 75.6312 162.827 75.4495 162.463C75.2678 162.097 75.1769 161.636 75.1769 161.079V156.922H76.182V161.011C76.182 161.488 76.3155 161.868 76.5824 162.152C76.8521 162.436 77.1957 162.578 77.6131 162.578C77.863 162.578 78.1171 162.514 78.3755 162.387C78.6367 162.259 78.8553 162.063 79.0314 161.799C79.2102 161.535 79.2997 161.198 79.2997 160.789ZM82.1458 165.917V156.922H83.1169V157.961H83.2361C83.31 157.848 83.4122 157.703 83.5428 157.527C83.6762 157.348 83.8665 157.189 84.1135 157.05C84.3634 156.908 84.7012 156.837 85.1272 156.837C85.678 156.837 86.1635 156.975 86.5838 157.25C87.004 157.526 87.3319 157.916 87.5676 158.421C87.8033 158.927 87.9211 159.523 87.9211 160.21C87.9211 160.903 87.8033 161.504 87.5676 162.012C87.3319 162.517 87.0054 162.909 86.588 163.187C86.1706 163.463 85.6894 163.6 85.1442 163.6C84.724 163.6 84.3875 163.531 84.1348 163.392C83.8821 163.25 83.6876 163.089 83.5513 162.91C83.415 162.729 83.31 162.578 83.2361 162.459H83.1509V165.917H82.1458ZM83.1339 160.193C83.1339 160.687 83.2063 161.123 83.3511 161.501C83.4959 161.876 83.7075 162.169 83.9857 162.382C84.264 162.592 84.6047 162.698 85.0079 162.698C85.4281 162.698 85.7788 162.587 86.0599 162.365C86.3438 162.141 86.5568 161.84 86.6988 161.462C86.8436 161.082 86.916 160.659 86.916 160.193C86.916 159.733 86.845 159.319 86.703 158.95C86.5639 158.578 86.3523 158.284 86.0684 158.068C85.7873 157.849 85.4338 157.74 85.0079 157.74C84.599 157.74 84.2555 157.844 83.9772 158.051C83.6989 158.255 83.4888 158.542 83.3469 158.911C83.2049 159.278 83.1339 159.705 83.1339 160.193ZM89.4544 165.917V156.922H90.4254V157.961H90.5447C90.6185 157.848 90.7207 157.703 90.8514 157.527C90.9848 157.348 91.175 157.189 91.4221 157.05C91.6719 156.908 92.0098 156.837 92.4357 156.837C92.9866 156.837 93.4721 156.975 93.8923 157.25C94.3126 157.526 94.6405 157.916 94.8762 158.421C95.1118 158.927 95.2297 159.523 95.2297 160.21C95.2297 160.903 95.1118 161.504 94.8762 162.012C94.6405 162.517 94.314 162.909 93.8966 163.187C93.4792 163.463 92.9979 163.6 92.4528 163.6C92.0325 163.6 91.6961 163.531 91.4434 163.392C91.1907 163.25 90.9962 163.089 90.8599 162.91C90.7236 162.729 90.6185 162.578 90.5447 162.459H90.4595V165.917H89.4544ZM90.4425 160.193C90.4425 160.687 90.5149 161.123 90.6597 161.501C90.8045 161.876 91.016 162.169 91.2943 162.382C91.5726 162.592 91.9133 162.698 92.3165 162.698C92.7367 162.698 93.0874 162.587 93.3685 162.365C93.6524 162.141 93.8654 161.84 94.0073 161.462C94.1521 161.082 94.2245 160.659 94.2245 160.193C94.2245 159.733 94.1536 159.319 94.0116 158.95C93.8725 158.578 93.6609 158.284 93.377 158.068C93.0959 157.849 92.7424 157.74 92.3165 157.74C91.9076 157.74 91.564 157.844 91.2858 158.051C91.0075 158.255 90.7974 158.542 90.6554 158.911C90.5135 159.278 90.4425 159.705 90.4425 160.193ZM99.4206 163.6C98.83 163.6 98.3118 163.46 97.866 163.179C97.4231 162.898 97.0767 162.504 96.8268 161.999C96.5798 161.494 96.4563 160.903 96.4563 160.227C96.4563 159.546 96.5798 158.951 96.8268 158.443C97.0767 157.934 97.4231 157.54 97.866 157.259C98.3118 156.978 98.83 156.837 99.4206 156.837C100.011 156.837 100.528 156.978 100.971 157.259C101.417 157.54 101.763 157.934 102.01 158.443C102.26 158.951 102.385 159.546 102.385 160.227C102.385 160.903 102.26 161.494 102.01 161.999C101.763 162.504 101.417 162.898 100.971 163.179C100.528 163.46 100.011 163.6 99.4206 163.6ZM99.4206 162.698C99.8692 162.698 100.238 162.583 100.528 162.353C100.818 162.123 101.032 161.82 101.171 161.445C101.31 161.071 101.38 160.665 101.38 160.227C101.38 159.79 101.31 159.383 101.171 159.005C101.032 158.627 100.818 158.322 100.528 158.089C100.238 157.856 99.8692 157.74 99.4206 157.74C98.972 157.74 98.6029 157.856 98.3132 158.089C98.0236 158.322 97.8093 158.627 97.6701 159.005C97.531 159.383 97.4614 159.79 97.4614 160.227C97.4614 160.665 97.531 161.071 97.6701 161.445C97.8093 161.82 98.0236 162.123 98.3132 162.353C98.6029 162.583 98.972 162.698 99.4206 162.698ZM103.919 163.464V156.922H104.89V157.91H104.958C105.078 157.587 105.294 157.324 105.606 157.122C105.918 156.921 106.27 156.82 106.662 156.82C106.736 156.82 106.828 156.821 106.939 156.824C107.05 156.827 107.133 156.831 107.19 156.837V157.859C107.156 157.851 107.078 157.838 106.956 157.821C106.837 157.801 106.71 157.791 106.577 157.791C106.259 157.791 105.975 157.858 105.725 157.991C105.478 158.122 105.282 158.304 105.137 158.536C104.995 158.766 104.924 159.029 104.924 159.324V163.464H103.919ZM111.637 156.922V157.774H108.246V156.922H111.637ZM109.235 155.355H110.24V161.59C110.24 161.874 110.281 162.087 110.363 162.229C110.448 162.368 110.556 162.462 110.687 162.51C110.82 162.556 110.961 162.578 111.109 162.578C111.219 162.578 111.31 162.573 111.381 162.561C111.452 162.547 111.509 162.536 111.552 162.527L111.756 163.43C111.688 163.456 111.593 163.481 111.471 163.507C111.348 163.535 111.194 163.549 111.006 163.549C110.722 163.549 110.444 163.488 110.172 163.366C109.902 163.244 109.678 163.058 109.499 162.808C109.323 162.558 109.235 162.243 109.235 161.863V155.355Z" fill="black"/>
<path d="M296.008 223.514C305.401 223.514 313.016 215.9 313.016 206.506C313.016 197.113 305.401 189.499 296.008 189.499C286.615 189.499 279 197.113 279 206.506C279 215.9 286.615 223.514 296.008 223.514Z" fill="#EBEBEB" stroke="black" stroke-width="2.00035" stroke-miterlimit="1.5" stroke-linecap="round" stroke-linejoin="round"/>
<path d="M306.783 217.3V195.713H285.233V217.3H306.783Z" fill="#C46C9C" stroke="black" stroke-width="2.00022" stroke-miterlimit="2"/>
<path fill-rule="evenodd" clip-rule="evenodd" d="M285.413 195.684C285.442 195.771 285.384 195.872 285.413 195.959C285.416 195.969 285.413 195.959 285.504 196.051L306.783 217.329" fill="black"/>
<path d="M285.413 195.684C285.442 195.771 285.384 195.872 285.413 195.959C285.416 195.969 285.413 195.959 285.504 196.051L306.783 217.329" stroke="black" stroke-width="2.00035" stroke-miterlimit="2"/>
<path d="M306.603 195.821L285.233 217.192" stroke="black" stroke-width="2.00035" stroke-miterlimit="2"/>
<path d="M384.008 223.514C393.401 223.514 401.016 215.9 401.016 206.506C401.016 197.113 393.401 189.499 384.008 189.499C374.615 189.499 367 197.113 367 206.506C367 215.9 374.615 223.514 384.008 223.514Z" fill="#EBEBEB" stroke="black" stroke-width="2.00035" stroke-miterlimit="1.5" stroke-linecap="round" stroke-linejoin="round"/>
<path d="M394.783 217.3V195.713H373.233V217.3H394.783Z" fill="#C46C9C" stroke="black" stroke-width="2.00022" stroke-miterlimit="2"/>
<path fill-rule="evenodd" clip-rule="evenodd" d="M373.413 195.684C373.442 195.771 373.384 195.872 373.413 195.959C373.416 195.969 373.413 195.959 373.504 196.051L394.783 217.329" fill="black"/>
<path d="M373.413 195.684C373.442 195.771 373.384 195.872 373.413 195.959C373.416 195.969 373.413 195.959 373.504 196.051L394.783 217.329" stroke="black" stroke-width="2.00035" stroke-miterlimit="2"/>
<path d="M394.603 195.821L373.233 217.192" stroke="black" stroke-width="2.00035" stroke-miterlimit="2"/>
<path d="M384.008 135.514C393.401 135.514 401.016 127.9 401.016 118.506C401.016 109.113 393.401 101.499 384.008 101.499C374.615 101.499 367 109.113 367 118.506C367 127.9 374.615 135.514 384.008 135.514Z" fill="#EBEBEB" stroke="black" stroke-width="2.00035" stroke-miterlimit="1.5" stroke-linecap="round" stroke-linejoin="round"/>
<path d="M394.785 129.696V107.317H373.231V129.696H394.785Z" fill="#C46C9C" stroke="black" stroke-width="1.99946" stroke-miterlimit="2"/>
<path d="M379.458 118.506C379.458 121.019 381.495 123.056 384.008 123.056C386.521 123.056 388.558 121.019 388.558 118.506C388.558 115.993 386.521 113.956 384.008 113.956C381.495 113.956 379.458 115.993 379.458 118.506Z" fill="black" stroke="black" stroke-width="2.00035" stroke-miterlimit="2"/>
<path d="M208.008 223.514C217.401 223.514 225.016 215.9 225.016 206.506C225.016 197.113 217.401 189.499 208.008 189.499C198.615 189.499 191 197.113 191 206.506C191 215.9 198.615 223.514 208.008 223.514Z" fill="#EBEBEB" stroke="black" stroke-width="2.00035" stroke-miterlimit="1.5" stroke-linecap="round" stroke-linejoin="round"/>
<path d="M218.783 217.3V195.713H197.233V217.3H218.783Z" fill="#C46C9C" stroke="black" stroke-width="2.00022" stroke-miterlimit="2"/>
<path fill-rule="evenodd" clip-rule="evenodd" d="M197.413 195.684C197.442 195.771 197.384 195.872 197.413 195.959C197.416 195.969 197.413 195.959 197.504 196.051L218.783 217.329" fill="black"/>
<path d="M197.413 195.684C197.442 195.771 197.384 195.872 197.413 195.959C197.416 195.969 197.413 195.959 197.504 196.051L218.783 217.329" stroke="black" stroke-width="2.00035" stroke-miterlimit="2"/>
<path d="M218.603 195.821L197.233 217.192" stroke="black" stroke-width="2.00035" stroke-miterlimit="2"/>
<path d="M473.008 135.514C482.401 135.514 490.016 127.9 490.016 118.506C490.016 109.113 482.401 101.499 473.008 101.499C463.615 101.499 456 109.113 456 118.506C456 127.9 463.615 135.514 473.008 135.514Z" fill="#EBEBEB" stroke="black" stroke-width="2.00035" stroke-miterlimit="1.5" stroke-linecap="round" stroke-linejoin="round"/>
<path d="M484.197 107.682H461.818V129.235H484.197V107.682Z" fill="#C46C9C" stroke="black" stroke-width="1.99946" stroke-miterlimit="2"/>
<path fill-rule="evenodd" clip-rule="evenodd" d="M482.628 118.987C482.628 121.354 480.706 123.275 478.34 123.275H467.676C465.309 123.275 463.388 121.354 463.388 118.987C463.388 116.621 465.309 114.699 467.676 114.699H478.34C480.706 114.699 482.628 116.621 482.628 118.987Z" fill="#C46C9C" stroke="black" stroke-width="2.00016" stroke-miterlimit="2"/>
<rect x="346" y="95.4985" width="5" height="55" fill="black"/>
<rect x="417" y="95.4985" width="5" height="55" fill="black"/>
<rect x="346" y="150.499" width="76" height="5" fill="black"/>
<rect x="258" y="184.499" width="5" height="55" fill="black"/>
<rect x="329" y="184.499" width="5" height="55" fill="black"/>
<rect x="258" y="239.499" width="76" height="5" fill="black"/>
<path d="M208.008 367.514C217.401 367.514 225.016 359.9 225.016 350.506C225.016 341.113 217.401 333.499 208.008 333.499C198.615 333.499 191 341.113 191 350.506C191 359.9 198.615 367.514 208.008 367.514Z" fill="#EBEBEB" stroke="black" stroke-width="2.00035" stroke-miterlimit="1.5" stroke-linecap="round" stroke-linejoin="round"/>
<path d="M218.783 361.3V339.713H197.233V361.3H218.783Z" fill="#9CC46C" stroke="black" stroke-width="2.00022" stroke-miterlimit="2"/>
<path fill-rule="evenodd" clip-rule="evenodd" d="M197.413 339.684C197.442 339.771 197.384 339.872 197.413 339.959C197.416 339.969 197.413 339.959 197.504 340.051L218.783 361.329" fill="black"/>
<path d="M197.413 339.684C197.442 339.771 197.384 339.872 197.413 339.959C197.416 339.969 197.413 339.959 197.504 340.051L218.783 361.329" stroke="black" stroke-width="2.00035" stroke-miterlimit="2"/>
<path d="M218.603 339.821L197.233 361.192" stroke="black" stroke-width="2.00035" stroke-miterlimit="2"/>
<path d="M296.008 367.514C305.401 367.514 313.016 359.9 313.016 350.506C313.016 341.113 305.401 333.499 296.008 333.499C286.615 333.499 279 341.113 279 350.506C279 359.9 286.615 367.514 296.008 367.514Z" fill="#EBEBEB" stroke="black" stroke-width="2.00035" stroke-miterlimit="1.5" stroke-linecap="round" stroke-linejoin="round"/>
<path d="M306.783 361.3V339.713H285.233V361.3H306.783Z" fill="#9CC46C" stroke="black" stroke-width="2.00022" stroke-miterlimit="2"/>
<path fill-rule="evenodd" clip-rule="evenodd" d="M285.413 339.684C285.442 339.771 285.384 339.872 285.413 339.959C285.416 339.969 285.413 339.959 285.504 340.051L306.783 361.329" fill="black"/>
<path d="M285.413 339.684C285.442 339.771 285.384 339.872 285.413 339.959C285.416 339.969 285.413 339.959 285.504 340.051L306.783 361.329" stroke="black" stroke-width="2.00035" stroke-miterlimit="2"/>
<path d="M306.603 339.821L285.233 361.192" stroke="black" stroke-width="2.00035" stroke-miterlimit="2"/>
<path d="M473.008 455.514C482.401 455.514 490.016 447.9 490.016 438.506C490.016 429.113 482.401 421.499 473.008 421.499C463.615 421.499 456 429.113 456 438.506C456 447.9 463.615 455.514 473.008 455.514Z" fill="#EBEBEB" stroke="black" stroke-width="2.00035" stroke-miterlimit="1.5" stroke-linecap="round" stroke-linejoin="round"/>
<path d="M484.198 427.778H461.818V449.331H484.198V427.778Z" fill="#9CC46C" stroke="black" stroke-width="1.99946" stroke-miterlimit="2"/>
<path fill-rule="evenodd" clip-rule="evenodd" d="M473.132 427.682L483.909 449.235H462.356L473.132 427.682Z" fill="#9CC46C" stroke="black" stroke-width="2.00035" stroke-miterlimit="2"/>
<path d="M384.008 455.514C393.401 455.514 401.016 447.9 401.016 438.506C401.016 429.113 393.401 421.499 384.008 421.499C374.615 421.499 367 429.113 367 438.506C367 447.9 374.615 455.514 384.008 455.514Z" fill="#EBEBEB" stroke="black" stroke-width="2.00035" stroke-miterlimit="1.5" stroke-linecap="round" stroke-linejoin="round"/>
<path d="M395.197 427.682H372.818V449.235H395.197V427.682Z" fill="#9CC46C" stroke="black" stroke-width="1.99946" stroke-miterlimit="2"/>
<path fill-rule="evenodd" clip-rule="evenodd" d="M393.627 438.987C393.627 441.354 391.706 443.275 389.34 443.275H378.676C376.309 443.275 374.388 441.354 374.388 438.987C374.388 436.621 376.309 434.699 378.676 434.699H389.34C391.706 434.699 393.627 436.621 393.627 438.987Z" fill="#9CC46C" stroke="black" stroke-width="2.00016" stroke-miterlimit="2"/>
<path d="M68.0079 468.514C77.4011 468.514 85.0158 460.9 85.0158 451.506C85.0158 442.113 77.4011 434.499 68.0079 434.499C58.6147 434.499 51 442.113 51 451.506C51 460.9 58.6147 468.514 68.0079 468.514Z" fill="#EBEBEB" stroke="black" stroke-width="2.00035" stroke-miterlimit="1.5" stroke-linecap="round" stroke-linejoin="round"/>
<path d="M78.7847 462.696V440.317H57.2311V462.696H78.7847Z" fill="#9CC46C" stroke="black" stroke-width="1.99946" stroke-miterlimit="2"/>
<path d="M63.4579 451.506C63.4579 454.019 65.495 456.056 68.0079 456.056C70.5209 456.056 72.558 454.019 72.558 451.506C72.558 448.993 70.5209 446.956 68.0079 446.956C65.495 446.956 63.4579 448.993 63.4579 451.506Z" fill="black" stroke="black" stroke-width="2.00035" stroke-miterlimit="2"/>
</svg>
